<svg width="512" height="512" viewBox="0 0 512 512" fill="none" xmlns="http://www.w3.org/2000/svg">
<g clip-path="url(#clip0_2703_581)">
<path d="M279.327 -3.05176e-05C411.037 -3.05176e-05 476.489 62.6867 476.489 162.822C476.489 237.721 430.43 286.566 368.211 294.708C420.734 305.292 451.437 335.414 457.095 394.843L457.914 405.773L458.628 415.99L459.246 425.547L459.675 432.753L460.136 441.256L460.375 446.109L460.715 453.817L460.99 461.098L461.126 465.283L461.31 471.989L461.469 479.656L461.526 483.361L461.63 494.098L461.663 505.301L461.665 512H325.841C325.841 509.173 325.863 506.451 325.896 503.78L325.977 498.494L326.212 485.691L326.272 481.399L326.31 476.959C326.314 476.204 326.317 475.441 326.318 474.669L326.312 470.365L326.272 465.852L326.217 462.309L326.106 457.35L325.945 452.09L325.728 446.498L325.451 440.54L325.288 437.414L325.01 432.529L324.691 427.396L324.195 420.145L323.769 414.382C320.013 359.87 298.085 344.788 257.987 342.943L255.374 342.843L252.712 342.777C251.816 342.761 250.911 342.75 249.999 342.745L34.9999 342.741V236.093H255.088C313.265 236.093 342.353 218.257 342.353 171.039C342.353 129.521 313.265 104.358 255.088 104.358H34.9999V-3.05176e-05H279.327ZM178.615 432.496C196.436 432.496 203.891 442.39 206.547 451.861L206.833 452.951C206.877 453.133 206.92 453.313 206.96 453.494L207.186 454.572L207.373 455.638C207.401 455.814 207.428 455.99 207.453 456.164L207.587 457.204L207.688 458.223C207.702 458.391 207.715 458.558 207.727 458.723L207.781 459.703C207.788 459.864 207.794 460.024 207.798 460.182L207.811 461.116V512H34.9999V432.496H178.615Z" fill="#121212"/>
</g>
<defs>
<clipPath id="clip0_2703_581">
<rect width="512" height="512" fill="white"/>
</clipPath>
</defs>
</svg>
