<?xml version="1.0" standalone="no"?>
<!DOCTYPE svg PUBLIC "-//W3C//DTD SVG 1.0//EN" "http://www.w3.org/TR/2001/REC-SVG-20010904/DTD/svg10.dtd">
<svg xmlns="http://www.w3.org/2000/svg" xmlns:xlink="http://www.w3.org/1999/xlink" id="body_1" width="300" height="286">

<g transform="matrix(0.3 0 0 0.3 -0 0.049996953)">
	<g transform="matrix(1 0 0 1 -0.8261004 0.38654244)">
		<g transform="matrix(3.8582995 0 0 3.8582995 0.70035297 -0)">
			<g transform="matrix(1 0 0 1 0.21396 -0.099973656)">
				<g transform="matrix(1 0 0 1 0 0)">
					<g>
						<g transform="matrix(1 0 0 1 0 0)">
							<g>
								<g transform="matrix(1 0 0 1 0 0)">
									<g>
										<g transform="matrix(1 0 0 1 0 0)">
											<g>
												<g transform="matrix(1 0 0 1 0 0)">
                                                    <path d="M257.967 53.02C 256.751 27.36 253.286 20.227 253.286 20.227C 242.65 -6.202 229.376 -0.506 217.45 3.292C 196.396 3.446 175.427 9.091 154.422 12.119C 110.332 12.581 65.865 4.986 21.994 23.717C 17.873 29.464 -4.275 24.846 0.733 56.304C 2.046 69.39 6.835 83.913 6.689 95.922C 7.346 98.026 8.258 93.202 8.647 96.23C 10.008 104.39 12.233 100.541 14.056 105.365C 11.515 118.246 13.339 128.971 15.077 140.21C 12.014 143.135 8.087 141.749 6.325 151.449C 6.142 158.479 5.158 157.145 4.076 156.837C 3.286 156.632 1.693 157.402 1.961 159.608C 2.872 167.152 -1.042 171.514 1.414 178.904C -0.276 186.91 2.581 193.838 2.192 202.511C 2.143 204.255 2.411 205.744 2.836 206.154C 4.72 208.361 1.973 212.672 2.265 217.342C 21.593 249.262 42.562 227.195 62.364 241.872C 67.506 231.608 63.64 245.516 65.695 243.36C 67.299 240.846 68.466 251.263 70.278 245.362C 70.557 243.668 70.132 239.665 71.128 240.435C 71.651 240.846 72.113 240.743 72.186 238.382C 72.295 234.841 71.335 237.048 71.08 235.201C 73.839 225.861 73.159 248.081 75.748 247.158C 75.626 244.438 74.873 240.538 76.416 241.051C 77.948 237.151 77.997 233.918 79.358 242.693C 79.407 244.592 79.65 245.926 80.039 246.85C 84.293 237.305 88.524 250.237 92.985 245.926C 95.72 241.205 98.346 248.492 101.117 246.696C 102.09 245.259 103.075 242.693 104.011 247.004C 115.474 247.928 127.69 244.079 138.558 247.158C 167.599 241.41 198.633 249.518 229.254 241.923C 236.475 238.998 243.975 234.841 251.013 231.506C 251.013 231.506 256.714 222.371 256.714 181.316C 256.714 140.26099 257.93 145.393 258.112 112.703C 258.295 80.013 259.146 78.679 257.93 53.02L257.93 53.02L257.967 53.02z" stroke="none" fill="#FA4238" fill-rule="nonzero" />
													<g transform="matrix(1 0 0 1 55.76832 26.230667)">
														<g transform="matrix(6.0384083 0 0 6.0384083 -0 193.22906)">
                                                            <path transform="matrix(1 0 0 1 0 0)"  d="M24.5 -32.25L24.95 -31.65L24.5 -25.7L18.2 -26L16.8 -26L16.55 -10.35L16.85 0L8.75 0L9.2 -9.55L8.95 -26L7.45 -26L1.1 -25.7L0.6 -26.3L1.1 -32.25L24.5 -32.25z" stroke="none" fill="#FDF8F1" fill-rule="nonzero" />
														</g>
													</g>
												</g>
											</g>
										</g>
									</g>
								</g>
							</g>
							<g>
							</g>
						</g>
					</g>
				</g>
			</g>
		</g>
	</g>
</g>
</svg>